PathFileType	4	(X/Y/Z)	/Users/itak/Documents/Research/Walk-IL/dataset/trc/00228_00009.trc
DataRate	CameraRate	NumFrames	NumMarkers	Units	OrigDataRate	OrigDataStartFrame	OrigNumFrames
100.000000	100.000000	4	53	mm	100.000000	481	771
Frame#	Time	RPSI			LPSI			L3			STRN			T10			C7			CLAV			RBAK			LBAK			LSHO			LUPA			LAEL			LAOL			LWTS			LWPS			LFRA			LIFD			LHPS			LHTS			RSHO			RUPA			RAEL			RAOL			RWTS			RWPS			RFRA			RIFD			RHTS			RHPS			RBHD			LFHD			RFHD			LBHD			LHIP			RHIP			RASI			LASI			LKNE			LTHI			LANK			LTIP			LTOE			LMT1			LMT5			LHEE			RKNE			RTHI			RANK			RTIP			RTOE			RMT1			RMT5			RHEE			
		X1	Y1	Z1	X2	Y2	Z2	X3	Y3	Z3	X4	Y4	Z4	X5	Y5	Z5	X6	Y6	Z6	X7	Y7	Z7	X8	Y8	Z8	X9	Y9	Z9	X10	Y10	Z10	X11	Y11	Z11	X12	Y12	Z12	X13	Y13	Z13	X14	Y14	Z14	X15	Y15	Z15	X16	Y16	Z16	X17	Y17	Z17	X18	Y18	Z18	X19	Y19	Z19	X20	Y20	Z20	X21	Y21	Z21	X22	Y22	Z22	X23	Y23	Z23	X24	Y24	Z24	X25	Y25	Z25	X26	Y26	Z26	X27	Y27	Z27	X28	Y28	Z28	X29	Y29	Z29	X30	Y30	Z30	X31	Y31	Z31	X32	Y32	Z32	X33	Y33	Z33	X34	Y34	Z34	X35	Y35	Z35	X36	Y36	Z36	X37	Y37	Z37	X38	Y38	Z38	X39	Y39	Z39	X40	Y40	Z40	X41	Y41	Z41	X42	Y42	Z42	X43	Y43	Z43	X44	Y44	Z44	X45	Y45	Z45	X46	Y46	Z46	X47	Y47	Z47	X48	Y48	Z48	X49	Y49	Z49	X50	Y50	Z50	X51	Y51	Z51	X52	Y52	Z52	X53	Y53	Z53	

482	4.81	-9.257550239562988	1044.727172851562	-375.6263427734375	78.53823852539062	1045.967895507812	-294.1136779785156	37.26069259643555	1132.2333984375	-330.5986938476562	-137.0851593017578	1302.455078125	-135.9993896484375	20.72036170959473	1257.350463867188	-341.7227783203125	-42.17197418212891	1514.206787109375	-289.3964538574219	-133.1802062988281	1420.82666015625	-157.5477905273438	-40.52986907958984	1374.814575195312	-395.1602478027344	60.34495162963867	1488.107055664062	-240.4325256347656	52.68019104003906	1491.8876953125	-135.0891418457031	151.0800933837891	1386.050415039062	-122.3643798828125	208.7123718261719	1184.781494140625	-112.9657821655273	200.6586303710938	1168.101684570312	-198.3938751220703	128.0188446044922	953.2286987304688	-45.16033935546875	210.2670288085938	937.4754028320312	-33.7411003112793	217.9424743652344	1079.120971679688	-82.45277404785156	132.7879943847656	760.6372680664062	-20.31513404846191	199.3288421630859	850.847900390625	-12.48605918884277	132.8028869628906	856.9978637695312	3.487794160842896	-205.3674774169922	1456.186645507812	-344.517333984375	-241.5128021240234	1392.507446289062	-402.7205505371094	-259.7496337890625	1120.053466796875	-467.7350158691406	-173.2832183837891	1105.574462890625	-429.312744140625	-342.8638305664062	903.3607788085938	-357.8807067871094	-349.2554016113281	895.3193969726562	-441.8280029296875	-291.3311157226562	1053.389770507812	-463.2447814941406	-369.8241882324219	710.815673828125	-356.8771057128906	-393.4895629882812	786.356689453125	-350.7482299804688	-389.6389465332031	790.6488037109375	-423.2543029785156	-120.5091705322266	1664.513549804688	-289.7773132324219	-171.1812438964844	1702.64208984375	-71.44213104248047	-249.5599670410156	1698.059448242188	-133.3607330322266	-43.53505706787109	1674.905151367188	-172.9572601318359	108.1660614013672	986.3101196289062	-122.6828536987305	-153.1582641601562	1003.401428222656	-381.3685607910156	-197.3506774902344	1040.048950195312	-285.2654113769531	1.793038487434387	1028.349975585938	-88.32889556884766	-54.02508544921875	533.1878662109375	-0.1288852244615555	10.02025127410889	665.7720336914062	-24.89579582214355	5.03660774230957	59.90346145629883	-117.4797286987305	-12.98898124694824	310.1870727539062	-56.11447143554688	-169.09033203125	71.90489959716797	9.684008598327637	-159.3408508300781	62.99968719482422	-68.63177490234375	-63.30706024169922	53.66638946533203	-10.53572368621826	4.716676235198975	75.46956634521484	-196.4955596923828	-145.0677185058594	512.781005859375	-353.6082458496094	-195.5769958496094	780.5715942382812	-353.1471557617188	-54.14553451538086	31.41045951843262	-419.8906555175781	-134.1265869140625	393.7230224609375	-345.0944519042969	-187.6666412353516	40.04011154174805	-248.1228637695312	-117.3590545654297	38.80706405639648	-252.4195098876953	-154.2555541992188	30.05405235290527	-370.2852478027344	31.00725746154785	33.03313064575195	-416.6199340820312	
483	4.82	-14.86123466491699	1044.473266601562	-373.1655578613281	73.84162902832031	1045.754638671875	-292.6622619628906	32.0145263671875	1131.9609375	-328.6517333984375	-140.1423492431641	1301.951049804688	-131.8176879882812	15.085768699646	1257.036987304688	-339.5406494140625	-47.23939895629883	1513.805541992188	-286.2976684570312	-136.6012725830078	1420.334106445312	-153.3529815673828	-46.81775283813477	1374.501098632812	-392.1982421875	55.84438705444336	1487.727172851562	-238.5579376220703	49.60675811767578	1491.362060546875	-133.1304168701172	147.6938629150391	1385.03564453125	-121.9746170043945	203.8573455810547	1183.047973632812	-114.2209014892578	194.8842926025391	1167.011596679688	-199.6969146728516	122.125129699707	951.6476440429688	-47.20781707763672	204.3756866455078	935.2564697265625	-36.58665084838867	212.5893859863281	1077.143920898438	-84.52188873291016	125.9094314575195	758.729248046875	-24.09373092651367	193.0424194335938	848.5300903320312	-15.98154258728027	126.6443710327148	854.9212036132812	0.4488645195960999	-211.0939178466797	1455.726196289062	-339.4781799316406	-247.9002685546875	1391.926147460938	-397.2018127441406	-266.6354370117188	1119.240234375	-461.3887939453125	-179.8616180419922	1104.837280273438	-423.9332275390625	-348.1697387695312	902.9236450195312	-349.6331176757812	-355.6060180664062	894.5236206054688	-433.4682006835938	-298.0962829589844	1052.55859375	-456.26611328125	-375.0169067382812	710.3822021484375	-347.4853820800781	-398.6343994140625	785.9197387695312	-341.3764343261719	-395.6471862792969	789.902099609375	-413.9407043457031	-125.6705856323242	1664.189208984375	-285.6193542480469	-173.7051086425781	1702.02587890625	-66.61566162109375	-252.7686614990234	1697.506103515625	-127.5615310668945	-47.26959991455078	1674.454956054688	-169.7340393066406	105.5459594726562	985.9650268554688	-121.788215637207	-158.8493499755859	1002.937927246094	-377.2417297363281	-201.6966247558594	1039.388916015625	-280.5206298828125	-0.4209254384040833	1027.899169921875	-86.03777313232422	-55.09756851196289	532.9832153320312	2.183573722839355	9.671384811401367	665.198974609375	-23.10421562194824	-12.39831352233887	56.18029022216797	-107.1895141601562	-21.34194374084473	308.0635681152344	-51.01836395263672	-180.5227661132812	74.34688568115234	26.92346954345703	-174.3963012695312	63.90144348144531	-51.50769424438477	-76.14739990234375	53.58211135864258	2.592927694320679	-15.78032779693604	70.14692687988281	-186.3343963623047	-146.7982788085938	512.3433837890625	-352.1075744628906	-199.6324310302734	779.8234252929688	-349.3354797363281	-54.16550445556641	31.50052833557129	-419.849853515625	-135.1254577636719	393.5390014648438	-344.2600402832031	-187.6700134277344	40.05022048950195	-248.1470031738281	-117.3723907470703	38.83537292480469	-252.4524078369141	-154.2500152587891	30.03395080566406	-370.3096008300781	30.96310806274414	33.33188247680664	-416.6231079101562	
484	4.83	-20.431640625	1044.164794921875	-370.5876159667969	69.15797424316406	1045.459838867188	-291.0661926269531	26.82094383239746	1131.626586914062	-326.5626220703125	-143.1688385009766	1301.39453125	-127.5578231811523	9.556920051574707	1256.67626953125	-337.2032470703125	-52.19173049926758	1513.3603515625	-283.0545959472656	-139.9670257568359	1419.790893554688	-149.0861206054688	-52.96020126342773	1374.14208984375	-389.0956726074219	51.41286468505859	1487.273803710938	-236.5030670166016	46.56308364868164	1490.772338867188	-130.9965362548828	144.3211364746094	1383.96875	-121.3713073730469	198.9854888916016	1181.265380859375	-115.264030456543	189.1595916748047	1165.924926757812	-200.790771484375	116.2333984375	949.9476318359375	-49.23401260375977	198.4833984375	932.9554443359375	-39.36359024047852	207.2152252197266	1075.1142578125	-86.43575286865234	119.0928268432617	756.6951293945312	-28.14441871643066	186.7760467529297	846.0956420898438	-19.54080772399902	120.502326965332	852.6647338867188	-2.706800222396851	-216.6665954589844	1455.227294921875	-334.3525390625	-254.11083984375	1391.298583984375	-391.591064453125	-273.3165893554688	1118.375732421875	-454.9274597167969	-186.2566070556641	1104.061767578125	-418.4352111816406	-353.2352294921875	902.4832153320312	-341.2032775878906	-361.72265625	893.6908569335938	-424.9103088378906	-304.6483154296875	1051.673583984375	-449.1526184082031	-379.9608459472656	709.9560546875	-337.8291931152344	-403.5269470214844	785.4922485351562	-331.7762145996094	-401.4003601074219	789.1286010742188	-404.3912353515625	-130.7093505859375	1663.804077148438	-281.3627319335938	-176.1673431396484	1701.368041992188	-61.7435188293457	-255.8970031738281	1696.89599609375	-121.7374877929688	-50.94347381591797	1673.965087890625	-166.4022521972656	102.8440856933594	985.5023193359375	-120.7639770507812	-164.4835510253906	1002.472839355469	-373.0342102050781	-206.0450744628906	1038.72265625	-275.7469177246094	-2.644734859466553	1027.3583984375	-83.63558959960938	-56.20912170410156	532.560546875	4.275835990905762	9.247280120849609	664.4512939453125	-21.4227180480957	-29.37651252746582	52.93891525268555	-96.7923583984375	-29.57850646972656	306.0314331054688	-45.98395919799805	-191.0807800292969	76.98960113525391	43.96669769287109	-188.6096801757812	65.20369720458984	-34.42770767211914	-88.32686614990234	53.73793029785156	15.57867527008057	-35.86794281005859	65.461669921875	-175.9043273925781	-148.5297241210938	511.9273986816406	-350.5668640136719	-203.6812438964844	779.0145263671875	-345.4314575195312	-54.19475936889648	31.59713745117188	-419.814208984375	-136.1293640136719	393.3699035644531	-343.409423828125	-187.6653442382812	40.06470108032227	-248.1745147705078	-117.3793029785156	38.86651229858398	-252.4904022216797	-154.2532806396484	30.01206588745117	-370.3380126953125	30.90893745422363	33.65111541748047	-416.6401062011719	
485	4.84	-25.96814727783203	1043.7978515625	-367.8887329101562	64.48532104492188	1045.078247070312	-289.3230590820312	21.68076705932617	1131.22705078125	-324.3307189941406	-146.1682586669922	1300.784423828125	-123.2196426391602	4.137395858764648	1256.265258789062	-334.7152709960938	-57.02109909057617	1512.8720703125	-279.6706848144531	-143.2696228027344	1419.192749023438	-144.7495422363281	-58.95735931396484	1373.735717773438	-385.8558959960938	47.05976486206055	1486.7470703125	-234.2751007080078	43.55525588989258	1490.114135742188	-128.6918640136719	140.973876953125	1382.847900390625	-120.5599899291992	194.1211242675781	1179.439819335938	-116.0976333618164	183.5033874511719	1164.839233398438	-201.6763610839844	110.3739242553711	948.1412963867188	-51.20143890380859	192.622314453125	930.5841674804688	-42.06043243408203	201.85107421875	1073.040893554688	-88.18723297119141	112.3453750610352	754.566162109375	-32.40883255004883	180.5612030029297	843.5629272460938	-23.13895225524902	114.4182281494141	850.2559814453125	-5.923467636108398	-222.0861663818359	1454.6884765625	-329.1420288085938	-260.1461791992188	1390.624145507812	-385.8905334472656	-279.8030700683594	1117.463745117188	-448.3600769042969	-192.4542999267578	1103.263671875	-412.8468627929688	-358.0616760253906	902.0401000976562	-332.6043090820312	-367.6119995117188	892.8250732421875	-416.1671142578125	-310.9975280761719	1050.738403320312	-441.9137573242188	-384.6509399414062	709.5371704101562	-327.9284057617188	-408.1611633300781	785.0741577148438	-321.9615173339844	-406.9100646972656	788.3331298828125	-394.6217956542969	-135.6210327148438	1663.359008789062	-277.0072631835938	-178.5631713867188	1700.665405273438	-56.82307052612305	-258.9454345703125	1696.22705078125	-115.8884887695312	-54.55399322509766	1673.432739257812	-162.9595031738281	100.0539016723633	984.9251098632812	-119.5944061279297	-170.0631103515625	1002.00732421875	-368.7502746582031	-210.4044647216797	1038.05126953125	-270.9468688964844	-4.89487361907959	1026.728271484375	-81.12361907958984	-57.41580200195312	531.9332885742188	6.17571496963501	8.692597389221191	663.5394287109375	-19.83426475524902	-45.83084106445312	50.1455192565918	-86.32518005371094	-37.68863677978516	304.0956726074219	-41.00527191162109	-200.8027038574219	79.84450531005859	60.69545364379883	-201.9668273925781	66.8919677734375	-17.5184497833252	-99.86341857910156	54.12146377563477	28.36379814147949	-55.42157745361328	61.37537002563477	-165.2556610107422	-150.2683563232422	511.537109375	-348.9891357421875	-207.7040557861328	778.1583862304688	-341.4347534179688	-54.23362350463867	31.70242500305176	-419.7837219238281	-137.1442108154297	393.2166442871094	-342.5443725585938	-187.6513519287109	40.08029937744141	-248.2030944824219	-117.3806457519531	38.90002059936523	-252.5313873291016	-154.2667541503906	29.98723030090332	-370.3704528808594	30.84545135498047	33.99563217163086	-416.6751403808594	
